<svg baseProfile="tiny" height="100%" version="1.2" width="100%" xmlns="http://www.w3.org/2000/svg" xmlns:ev="http://www.w3.org/2001/xml-events" xmlns:xlink="http://www.w3.org/1999/xlink">
    <path d="M 44.0,47.6 L 44.0,47.800000000000004 L 43.400000000000006,48.400000000000006 L 43.400000000000006,48.6 L 43.2,48.800000000000004 L 43.2,49.0 L 43.0,49.2 L 43.0,49.400000000000006 L 42.800000000000004,49.6 L 42.800000000000004,49.800000000000004 L 42.400000000000006,50.2 L 42.400000000000006,50.400000000000006 L 42.0,50.800000000000004 L 42.0,51.2 L 41.800000000000004,51.400000000000006 L 41.800000000000004,51.6 L 41.400000000000006,52.0 L 41.400000000000006,52.2 L 41.0,52.6 L 41.0,53.0 L 40.6,53.400000000000006 L 40.6,53.6 L 40.2,54.0 L 40.2,54.2 L 39.800000000000004,54.6 L 39.800000000000004,54.800000000000004 L 39.6,55.0 L 39.6,55.2 L 39.2,55.6 L 39.2,55.800000000000004 L 39.0,56.0 L 39.0,56.2 L 38.800000000000004,56.400000000000006 L 38.800000000000004,56.800000000000004 L 38.400000000000006,57.2 L 38.400000000000006,57.400000000000006 L 38.0,57.800000000000004 L 38.0,58.0 L 37.800000000000004,58.2 L 37.800000000000004,58.400000000000006 L 37.6,58.6 L 37.6,58.800000000000004 L 37.2,59.2 L 37.2,59.400000000000006 L 37.0,59.6 L 37.0,59.800000000000004 L 36.800000000000004,60.0 L 36.800000000000004,60.2 L 36.2,60.800000000000004 L 36.2,61.0 L 36.0,61.2 L 36.0,61.400000000000006 L 35.800000000000004,61.6 L 35.800000000000004,62.0 L 35.4,62.400000000000006 L 35.4,62.6 L 35.0,63.0 L 35.0,63.2 L 34.800000000000004,63.400000000000006 L 34.800000000000004,63.6 L 34.6,63.800000000000004 L 34.6,64.0 L 34.2,64.4 L 34.2,64.60000000000001 L 33.800000000000004,65.0 L 33.800000000000004,65.2 L 33.6,65.4 L 33.6,65.60000000000001 L 33.2,66.0 L 33.2,66.4 L 32.800000000000004,66.8 L 32.800000000000004,67.0 L 32.6,67.2 L 32.6,67.4 L 32.4,67.60000000000001 L 32.4,67.8 L 32.0,68.2 L 32.0,68.4 L 31.8,68.60000000000001 L 31.8,68.8 L 31.6,69.0 L 31.6,69.2 L 31.200000000000003,69.60000000000001 L 31.200000000000003,69.8 L 30.8,70.2 L 30.8,70.4 L 30.6,70.60000000000001 L 30.6,70.8 L 30.200000000000003,71.2 L 30.200000000000003,71.4 L 30.0,71.60000000000001 L 30.0,71.8 L 29.8,72.0 L 29.8,72.2 L 29.400000000000002,72.60000000000001 L 29.400000000000002,73.0 L 29.0,73.4 L 29.0,73.60000000000001 L 28.8,73.8 L 28.8,74.0 L 28.400000000000002,74.4 L 28.400000000000002,74.60000000000001 L 28.200000000000003,74.8 L 28.200000000000003,75.0 L 28.0,75.2 L 28.0,75.4 L 27.6,75.8 L 27.6,76.0 L 27.200000000000003,76.4 L 27.200000000000003,76.60000000000001 L 26.8,77.0 L 26.8,77.4 L 26.400000000000002,77.80000000000001 L 26.400000000000002,78.2 L 26.0,78.60000000000001 L 26.0,78.80000000000001 L 25.8,79.0 L 25.8,79.2 L 25.400000000000002,79.60000000000001 L 25.400000000000002,79.80000000000001 L 25.200000000000003,80.0 L 25.200000000000003,80.2 L 25.0,80.4 L 25.0,80.60000000000001 L 24.6,81.0 L 24.6,81.2 L 24.400000000000002,81.4 L 24.400000000000002,81.60000000000001 L 24.200000000000003,81.80000000000001 L 24.200000000000003,82.0 L 86.80000000000001,82.0 L 86.80000000000001,81.60000000000001 L 86.60000000000001,81.4 L 86.60000000000001,81.2 L 86.4,81.0 L 86.4,80.80000000000001 L 86.0,80.4 L 86.0,80.2 L 85.80000000000001,80.0 L 85.80000000000001,79.60000000000001 L 85.4,79.2 L 85.4,79.0 L 85.2,78.80000000000001 L 85.2,78.60000000000001 L 85.0,78.4 L 85.0,78.2 L 84.60000000000001,77.80000000000001 L 84.60000000000001,77.60000000000001 L 84.2,77.2 L 84.2,77.0 L 83.80000000000001,76.60000000000001 L 83.80000000000001,76.4 L 83.60000000000001,76.2 L 83.60000000000001,76.0 L 83.4,75.8 L 83.4,75.60000000000001 L 83.0,75.2 L 83.0,75.0 L 82.80000000000001,74.8 L 82.80000000000001,74.4 L 82.60000000000001,74.2 L 82.60000000000001,74.0 L 82.4,73.8 L 82.4,73.60000000000001 L 82.2,73.4 L 39.2,73.4 L 39.0,73.2 L 39.400000000000006,72.8 L 39.400000000000006,72.60000000000001 L 39.800000000000004,72.2 L 39.800000000000004,72.0 L 40.0,71.8 L 40.0,71.60000000000001 L 40.400000000000006,71.2 L 40.400000000000006,71.0 L 40.6,70.8 L 40.6,70.60000000000001 L 41.0,70.2 L 41.0,70.0 L 41.2,69.8 L 41.2,69.60000000000001 L 41.6,69.2 L 41.6,69.0 L 41.800000000000004,68.8 L 41.800000000000004,68.60000000000001 L 42.0,68.4 L 42.0,68.0 L 42.400000000000006,67.60000000000001 L 42.400000000000006,67.4 L 42.800000000000004,67.0 L 42.800000000000004,66.8 L 43.2,66.4 L 43.2,66.0 L 43.6,65.60000000000001 L 43.6,65.4 L 43.800000000000004,65.2 L 43.800000000000004,65.0 L 44.2,64.60000000000001 L 44.2,64.2 L 44.400000000000006,64.0 L 44.6,64.0 L 44.6,63.800000000000004 L 44.800000000000004,63.6 L 44.800000000000004,63.400000000000006 L 45.0,63.2 L 45.0,63.0 L 45.2,62.800000000000004 L 45.2,62.6 L 45.400000000000006,62.400000000000006 L 45.400000000000006,62.2 L 45.800000000000004,61.800000000000004 L 45.800000000000004,61.6 L 46.0,61.400000000000006 L 46.0,61.2 L 46.2,61.0 L 46.2,60.800000000000004 L 46.6,60.400000000000006 L 46.6,60.2 L 46.800000000000004,60.0 L 46.800000000000004,59.800000000000004 L 47.2,59.400000000000006 L 47.2,59.0 L 47.6,58.6 L 47.6,58.400000000000006 L 48.0,58.0 L 48.0,57.800000000000004 L 48.400000000000006,57.400000000000006 L 48.400000000000006,57.0 L 48.800000000000004,56.6 L 48.800000000000004,56.2 L 49.0,56.0 L 49.0,55.800000000000004 L 48.800000000000004,55.6 L 48.800000000000004,55.400000000000006 L 48.6,55.2 L 48.6,55.0 L 48.400000000000006,54.800000000000004 L 48.400000000000006,54.6 L 48.0,54.2 L 48.0,53.800000000000004 L 47.6,53.400000000000006 L 47.6,53.2 L 47.2,52.800000000000004 L 47.2,52.400000000000006 L 46.800000000000004,52.0 L 46.800000000000004,51.800000000000004 L 46.6,51.6 L 46.6,51.400000000000006 L 46.2,51.0 L 46.2,50.800000000000004 L 45.800000000000004,50.400000000000006 L 45.800000000000004,50.2 L 45.400000000000006,49.800000000000004 L 45.400000000000006,49.400000000000006 L 45.2,49.2 L 45.2,49.0 L 45.0,48.800000000000004 L 45.0,48.6 L 44.6,48.2 L 44.6,48.0 L 44.2,47.6 Z" fill="#F86C2D" /><path d="M 44.0,27.8 L 44.0,28.0 L 43.6,28.400000000000002 L 43.6,28.8 L 43.2,29.200000000000003 L 43.2,29.400000000000002 L 42.800000000000004,29.8 L 42.800000000000004,30.0 L 42.6,30.200000000000003 L 42.6,30.400000000000002 L 42.400000000000006,30.6 L 42.400000000000006,30.8 L 42.0,31.200000000000003 L 42.0,31.6 L 41.800000000000004,31.8 L 41.800000000000004,32.0 L 41.400000000000006,32.4 L 41.400000000000006,32.6 L 41.0,33.0 L 41.0,33.2 L 40.6,33.6 L 40.6,34.0 L 40.2,34.4 L 40.2,34.6 L 39.800000000000004,35.0 L 39.800000000000004,35.2 L 39.6,35.4 L 39.6,35.6 L 39.2,36.0 L 39.2,36.2 L 39.0,36.4 L 39.0,36.6 L 38.800000000000004,36.800000000000004 L 38.800000000000004,37.0 L 38.6,37.2 L 38.6,37.4 L 38.400000000000006,37.6 L 38.400000000000006,37.800000000000004 L 38.0,38.2 L 38.0,38.400000000000006 L 37.6,38.800000000000004 L 37.6,39.0 L 37.4,39.2 L 37.4,39.400000000000006 L 37.2,39.6 L 37.2,39.800000000000004 L 36.800000000000004,40.2 L 36.800000000000004,40.400000000000006 L 36.6,40.6 L 36.6,40.800000000000004 L 36.2,41.2 L 36.2,41.6 L 36.0,41.800000000000004 L 35.800000000000004,41.800000000000004 L 35.800000000000004,42.2 L 35.6,42.400000000000006 L 35.6,42.6 L 35.4,42.800000000000004 L 35.4,43.0 L 35.0,43.400000000000006 L 35.0,43.6 L 34.6,44.0 L 34.6,44.2 L 34.4,44.400000000000006 L 34.4,44.6 L 34.2,44.800000000000004 L 34.2,45.0 L 33.800000000000004,45.400000000000006 L 33.800000000000004,45.6 L 33.6,45.800000000000004 L 33.6,46.0 L 33.2,46.400000000000006 L 33.2,46.800000000000004 L 32.800000000000004,47.2 L 32.800000000000004,47.400000000000006 L 32.6,47.6 L 32.6,47.800000000000004 L 32.4,48.0 L 32.4,48.2 L 32.0,48.6 L 32.0,48.800000000000004 L 31.6,49.2 L 31.6,49.400000000000006 L 31.400000000000002,49.6 L 31.400000000000002,49.800000000000004 L 31.200000000000003,50.0 L 31.200000000000003,50.2 L 30.8,50.6 L 30.8,50.800000000000004 L 30.6,51.0 L 30.6,51.2 L 30.200000000000003,51.6 L 30.200000000000003,51.800000000000004 L 29.8,52.2 L 29.8,52.400000000000006 L 29.6,52.6 L 29.6,52.800000000000004 L 29.400000000000002,53.0 L 29.400000000000002,53.400000000000006 L 29.0,53.800000000000004 L 29.0,54.0 L 28.6,54.400000000000006 L 28.6,54.6 L 28.400000000000002,54.800000000000004 L 28.400000000000002,55.0 L 28.200000000000003,55.2 L 28.200000000000003,55.400000000000006 L 27.8,55.800000000000004 L 27.8,56.0 L 27.6,56.2 L 27.6,56.400000000000006 L 27.200000000000003,56.800000000000004 L 27.200000000000003,57.0 L 27.0,57.2 L 27.0,57.400000000000006 L 26.6,57.800000000000004 L 26.6,58.0 L 26.400000000000002,58.2 L 26.400000000000002,58.400000000000006 L 26.200000000000003,58.6 L 26.200000000000003,58.800000000000004 L 26.0,59.0 L 26.0,59.2 L 25.8,59.400000000000006 L 25.8,59.6 L 25.400000000000002,60.0 L 25.400000000000002,60.2 L 25.200000000000003,60.400000000000006 L 25.200000000000003,60.6 L 25.0,60.800000000000004 L 25.0,61.0 L 24.6,61.400000000000006 L 24.6,61.6 L 24.200000000000003,62.0 L 24.200000000000003,62.2 L 23.8,62.6 L 23.8,63.0 L 23.400000000000002,63.400000000000006 L 23.400000000000002,63.6 L 23.200000000000003,63.800000000000004 L 23.200000000000003,64.0 L 23.0,64.2 L 23.0,64.4 L 22.6,64.8 L 22.6,65.0 L 22.400000000000002,65.2 L 22.400000000000002,65.4 L 22.200000000000003,65.60000000000001 L 22.200000000000003,65.8 L 22.0,66.0 L 22.0,66.2 L 21.6,66.60000000000001 L 21.6,66.8 L 21.200000000000003,67.2 L 21.200000000000003,67.4 L 20.8,67.8 L 20.8,68.0 L 20.6,68.2 L 20.6,68.4 L 20.400000000000002,68.60000000000001 L 20.400000000000002,68.8 L 20.200000000000003,69.0 L 20.200000000000003,69.2 L 20.0,69.4 L 20.0,69.60000000000001 L 19.8,69.8 L 19.8,70.0 L 19.400000000000002,70.4 L 19.400000000000002,70.60000000000001 L 19.0,71.0 L 19.0,71.4 L 18.6,71.8 L 18.6,72.0 L 18.2,72.4 L 18.2,72.60000000000001 L 18.0,72.8 L 18.0,73.0 L 17.6,73.4 L 17.6,73.60000000000001 L 17.400000000000002,73.8 L 17.400000000000002,74.0 L 17.0,74.4 L 17.0,74.8 L 16.8,75.0 L 16.8,75.2 L 16.400000000000002,75.60000000000001 L 16.400000000000002,75.8 L 16.2,76.0 L 16.2,76.2 L 16.0,76.4 L 16.0,76.60000000000001 L 15.600000000000001,77.0 L 15.600000000000001,77.2 L 15.200000000000001,77.60000000000001 L 15.200000000000001,77.80000000000001 L 14.8,78.2 L 14.8,78.4 L 14.600000000000001,78.60000000000001 L 14.600000000000001,78.80000000000001 L 14.4,79.0 L 14.4,79.2 L 14.0,79.60000000000001 L 14.0,79.80000000000001 L 13.8,80.0 L 13.8,80.4 L 13.4,80.80000000000001 L 13.4,81.0 L 13.200000000000001,81.2 L 13.200000000000001,81.4 L 13.0,81.60000000000001 L 13.0,82.0 L 22.8,82.0 L 23.0,81.80000000000001 L 23.0,81.60000000000001 L 23.200000000000003,81.4 L 23.200000000000003,81.2 L 23.400000000000002,81.0 L 23.400000000000002,80.60000000000001 L 23.8,80.2 L 23.8,80.0 L 24.0,79.80000000000001 L 24.0,79.60000000000001 L 24.400000000000002,79.2 L 24.400000000000002,79.0 L 24.8,78.60000000000001 L 24.8,78.4 L 25.0,78.2 L 25.0,78.0 L 25.200000000000003,77.80000000000001 L 25.200000000000003,77.60000000000001 L 25.6,77.2 L 25.6,77.0 L 26.0,76.60000000000001 L 26.0,76.4 L 26.400000000000002,76.0 L 26.400000000000002,75.4 L 26.8,75.0 L 26.8,74.8 L 27.200000000000003,74.4 L 27.200000000000003,74.0 L 27.8,73.4 L 27.8,73.2 L 28.0,73.0 L 28.0,72.8 L 28.200000000000003,72.60000000000001 L 28.200000000000003,72.4 L 28.6,72.0 L 28.6,71.8 L 28.8,71.60000000000001 L 28.8,71.4 L 29.0,71.2 L 29.0,71.0 L 29.400000000000002,70.60000000000001 L 29.400000000000002,70.4 L 29.6,70.2 L 29.6,70.0 L 29.8,69.8 L 29.8,69.60000000000001 L 30.0,69.4 L 30.0,69.2 L 30.400000000000002,68.8 L 30.400000000000002,68.60000000000001 L 30.6,68.4 L 30.6,68.2 L 30.8,68.0 L 30.8,67.8 L 31.200000000000003,67.4 L 31.200000000000003,67.2 L 31.6,66.8 L 31.6,66.60000000000001 L 32.0,66.2 L 32.0,66.0 L 32.2,65.8 L 32.2,65.60000000000001 L 32.6,65.2 L 32.6,64.8 L 32.800000000000004,64.60000000000001 L 32.800000000000004,64.4 L 33.0,64.2 L 33.0,64.0 L 33.4,63.6 L 33.4,63.400000000000006 L 33.800000000000004,63.0 L 33.800000000000004,62.800000000000004 L 34.0,62.6 L 34.0,62.400000000000006 L 34.2,62.2 L 34.2,62.0 L 34.6,61.6 L 34.6,61.400000000000006 L 34.800000000000004,61.2 L 34.800000000000004,61.0 L 35.2,60.6 L 35.2,60.400000000000006 L 35.6,60.0 L 35.6,59.800000000000004 L 35.800000000000004,59.6 L 35.800000000000004,59.2 L 36.0,59.0 L 36.0,58.800000000000004 L 36.4,58.400000000000006 L 36.4,58.0 L 37.0,57.400000000000006 L 37.0,57.2 L 37.2,57.0 L 37.2,56.800000000000004 L 37.6,56.400000000000006 L 37.6,56.2 L 38.0,55.800000000000004 L 38.0,55.6 L 38.2,55.400000000000006 L 38.2,55.2 L 38.400000000000006,55.0 L 38.400000000000006,54.800000000000004 L 38.800000000000004,54.400000000000006 L 38.800000000000004,54.2 L 39.0,54.0 L 39.0,53.6 L 39.400000000000006,53.2 L 39.400000000000006,53.0 L 39.6,52.800000000000004 L 39.6,52.6 L 39.800000000000004,52.400000000000006 L 39.800000000000004,52.2 L 40.2,51.800000000000004 L 40.2,51.6 L 40.6,51.2 L 40.6,51.0 L 40.800000000000004,50.800000000000004 L 40.800000000000004,50.6 L 41.0,50.400000000000006 L 41.0,50.2 L 41.400000000000006,49.800000000000004 L 41.400000000000006,49.6 L 41.6,49.400000000000006 L 41.6,49.2 L 42.0,48.800000000000004 L 42.0,48.400000000000006 L 42.400000000000006,48.0 L 42.400000000000006,47.800000000000004 L 42.6,47.6 L 42.6,47.400000000000006 L 42.800000000000004,47.2 L 42.800000000000004,47.0 L 43.2,46.6 L 43.2,46.400000000000006 L 43.6,46.0 L 43.6,45.6 L 44.2,45.0 L 44.400000000000006,45.0 L 44.6,45.2 L 44.6,45.400000000000006 L 45.0,45.800000000000004 L 45.0,46.2 L 45.2,46.400000000000006 L 45.2,46.6 L 45.400000000000006,46.800000000000004 L 45.400000000000006,47.0 L 45.800000000000004,47.400000000000006 L 45.800000000000004,47.6 L 46.0,47.800000000000004 L 46.0,48.0 L 46.6,48.6 L 46.6,49.0 L 47.0,49.400000000000006 L 47.0,49.6 L 47.400000000000006,50.0 L 47.400000000000006,50.2 L 47.6,50.400000000000006 L 47.6,50.6 L 47.800000000000004,50.800000000000004 L 47.800000000000004,51.0 L 48.0,51.2 L 48.0,51.400000000000006 L 48.400000000000006,51.800000000000004 L 48.400000000000006,52.0 L 48.6,52.2 L 48.6,52.400000000000006 L 48.800000000000004,52.6 L 48.800000000000004,52.800000000000004 L 49.2,53.2 L 49.2,53.400000000000006 L 49.6,53.800000000000004 L 49.6,54.2 L 50.2,54.800000000000004 L 50.2,55.0 L 50.400000000000006,55.2 L 50.400000000000006,55.400000000000006 L 50.6,55.6 L 50.6,55.800000000000004 L 51.0,56.2 L 51.0,56.400000000000006 L 51.2,56.6 L 51.2,56.800000000000004 L 51.400000000000006,57.0 L 51.400000000000006,57.400000000000006 L 51.800000000000004,57.800000000000004 L 51.800000000000004,58.0 L 52.2,58.400000000000006 L 52.2,58.6 L 52.6,59.0 L 52.6,59.400000000000006 L 53.0,59.800000000000004 L 53.0,60.0 L 53.2,60.2 L 53.2,60.400000000000006 L 53.6,60.800000000000004 L 53.6,61.0 L 54.0,61.400000000000006 L 54.0,61.6 L 54.2,61.800000000000004 L 54.2,62.0 L 54.400000000000006,62.2 L 64.0,62.2 L 64.0,61.6 L 63.800000000000004,61.400000000000006 L 63.800000000000004,61.2 L 63.6,61.0 L 63.6,60.800000000000004 L 63.0,60.2 L 63.0,60.0 L 62.800000000000004,59.800000000000004 L 62.800000000000004,59.6 L 62.6,59.400000000000006 L 62.6,59.2 L 62.2,58.800000000000004 L 62.2,58.6 L 61.800000000000004,58.2 L 61.800000000000004,57.800000000000004 L 61.400000000000006,57.400000000000006 L 61.400000000000006,57.2 L 61.0,56.800000000000004 L 61.0,56.6 L 60.800000000000004,56.400000000000006 L 60.800000000000004,56.0 L 60.400000000000006,55.6 L 60.400000000000006,55.400000000000006 L 60.2,55.2 L 60.2,55.0 L 60.0,54.800000000000004 L 60.0,54.6 L 59.6,54.2 L 59.6,54.0 L 59.2,53.6 L 59.2,53.400000000000006 L 58.800000000000004,53.0 L 58.800000000000004,52.6 L 58.400000000000006,52.2 L 58.400000000000006,52.0 L 58.0,51.6 L 58.0,51.400000000000006 L 57.800000000000004,51.2 L 57.800000000000004,51.0 L 57.6,50.800000000000004 L 57.6,50.6 L 57.400000000000006,50.400000000000006 L 57.400000000000006,50.2 L 57.0,49.800000000000004 L 57.0,49.400000000000006 L 56.6,49.0 L 56.6,48.800000000000004 L 56.400000000000006,48.6 L 56.400000000000006,48.400000000000006 L 55.800000000000004,47.800000000000004 L 55.800000000000004,47.6 L 55.400000000000006,47.2 L 55.400000000000006,47.0 L 55.2,46.800000000000004 L 55.2,46.6 L 55.0,46.400000000000006 L 55.0,46.2 L 54.800000000000004,46.0 L 54.800000000000004,45.800000000000004 L 54.6,45.6 L 54.6,45.400000000000006 L 54.400000000000006,45.2 L 54.400000000000006,45.0 L 54.0,44.6 L 54.0,44.2 L 53.6,43.800000000000004 L 53.6,43.6 L 53.2,43.2 L 53.2,43.0 L 53.0,42.800000000000004 L 53.0,42.6 L 52.800000000000004,42.400000000000006 L 52.800000000000004,42.2 L 52.2,41.6 L 52.2,41.400000000000006 L 52.0,41.2 L 52.0,41.0 L 51.800000000000004,40.800000000000004 L 51.800000000000004,40.6 L 51.6,40.400000000000006 L 51.6,40.2 L 51.400000000000006,40.0 L 51.400000000000006,39.800000000000004 L 51.2,39.6 L 51.2,39.400000000000006 L 51.0,39.2 L 51.0,39.0 L 50.6,38.6 L 50.6,38.400000000000006 L 50.2,38.0 L 50.2,37.800000000000004 L 49.800000000000004,37.4 L 49.800000000000004,37.0 L 49.400000000000006,36.6 L 49.400000000000006,36.4 L 49.2,36.2 L 49.2,36.0 L 48.800000000000004,35.6 L 48.800000000000004,35.4 L 48.400000000000006,35.0 L 48.400000000000006,34.6 L 48.2,34.4 L 48.2,34.2 L 48.0,34.0 L 48.0,33.800000000000004 L 47.6,33.4 L 47.6,33.2 L 47.2,32.800000000000004 L 47.2,32.6 L 46.800000000000004,32.2 L 46.800000000000004,32.0 L 46.6,31.8 L 46.6,31.6 L 46.400000000000006,31.400000000000002 L 46.400000000000006,31.200000000000003 L 46.2,31.0 L 46.2,30.8 L 45.800000000000004,30.400000000000002 L 45.800000000000004,30.200000000000003 L 45.6,30.0 L 45.6,29.8 L 45.400000000000006,29.6 L 45.400000000000006,29.400000000000002 L 45.0,29.0 L 45.0,28.6 L 44.6,28.200000000000003 L 44.6,28.0 L 44.400000000000006,27.8 Z" fill="#F86C2D" /><path d="M 49.800000000000004,17.8 L 49.6,18.0 L 49.6,18.2 L 49.400000000000006,18.400000000000002 L 49.400000000000006,18.6 L 49.2,18.8 L 49.2,19.0 L 48.800000000000004,19.400000000000002 L 48.800000000000004,19.6 L 48.6,19.8 L 48.6,20.0 L 48.2,20.400000000000002 L 48.2,20.8 L 47.800000000000004,21.200000000000003 L 47.800000000000004,21.400000000000002 L 47.6,21.6 L 47.6,21.8 L 47.400000000000006,22.0 L 47.400000000000006,22.200000000000003 L 47.0,22.6 L 47.0,22.8 L 46.6,23.200000000000003 L 46.6,23.400000000000002 L 46.400000000000006,23.6 L 46.400000000000006,23.8 L 46.2,24.0 L 46.2,24.200000000000003 L 45.800000000000004,24.6 L 45.800000000000004,24.8 L 45.6,25.0 L 45.6,25.200000000000003 L 45.400000000000006,25.400000000000002 L 45.400000000000006,25.6 L 45.0,26.0 L 45.0,26.400000000000002 L 45.2,26.6 L 45.2,26.8 L 45.400000000000006,27.0 L 45.400000000000006,27.200000000000003 L 45.6,27.400000000000002 L 45.6,27.6 L 45.800000000000004,27.8 L 45.800000000000004,28.0 L 46.2,28.400000000000002 L 46.2,28.6 L 46.6,29.0 L 46.6,29.200000000000003 L 47.0,29.6 L 47.0,29.8 L 47.2,30.0 L 47.2,30.200000000000003 L 47.400000000000006,30.400000000000002 L 47.400000000000006,30.6 L 47.800000000000004,31.0 L 47.800000000000004,31.200000000000003 L 48.0,31.400000000000002 L 48.0,31.6 L 48.2,31.8 L 48.2,32.2 L 48.400000000000006,32.4 L 48.400000000000006,32.6 L 49.0,33.2 L 49.0,33.4 L 49.2,33.6 L 49.2,33.800000000000004 L 49.6,34.2 L 49.6,34.4 L 50.0,34.800000000000004 L 50.0,35.2 L 50.400000000000006,35.6 L 50.400000000000006,35.800000000000004 L 50.800000000000004,36.2 L 50.800000000000004,36.4 L 51.0,36.6 L 51.0,36.800000000000004 L 51.2,37.0 L 51.2,37.2 L 51.400000000000006,37.4 L 51.400000000000006,37.6 L 51.6,37.800000000000004 L 51.6,38.0 L 51.800000000000004,38.2 L 51.800000000000004,38.400000000000006 L 52.2,38.800000000000004 L 52.2,39.0 L 52.6,39.400000000000006 L 52.6,39.6 L 52.800000000000004,39.800000000000004 L 52.800000000000004,40.0 L 53.0,40.2 L 53.0,40.400000000000006 L 53.400000000000006,40.800000000000004 L 53.400000000000006,41.0 L 53.6,41.2 L 53.6,41.400000000000006 L 54.0,41.800000000000004 L 54.0,42.0 L 54.400000000000006,42.400000000000006 L 54.400000000000006,42.800000000000004 L 54.6,43.0 L 54.6,43.2 L 54.800000000000004,43.400000000000006 L 54.800000000000004,43.6 L 55.2,44.0 L 55.2,44.2 L 55.6,44.6 L 55.6,45.0 L 56.2,45.6 L 56.2,45.800000000000004 L 56.400000000000006,46.0 L 56.400000000000006,46.2 L 56.6,46.400000000000006 L 56.6,46.6 L 57.0,47.0 L 57.0,47.2 L 57.2,47.400000000000006 L 57.2,47.6 L 57.400000000000006,47.800000000000004 L 57.400000000000006,48.0 L 57.6,48.2 L 57.6,48.400000000000006 L 58.0,48.800000000000004 L 58.0,49.0 L 58.2,49.2 L 58.2,49.400000000000006 L 58.400000000000006,49.6 L 58.400000000000006,49.800000000000004 L 58.800000000000004,50.2 L 58.800000000000004,50.400000000000006 L 59.0,50.6 L 59.0,50.800000000000004 L 59.2,51.0 L 59.2,51.2 L 59.800000000000004,51.800000000000004 L 59.800000000000004,52.0 L 60.0,52.2 L 60.0,52.400000000000006 L 60.400000000000006,52.800000000000004 L 60.400000000000006,53.2 L 60.800000000000004,53.6 L 60.800000000000004,54.0 L 61.2,54.400000000000006 L 61.2,54.6 L 61.6,55.0 L 61.6,55.2 L 61.800000000000004,55.400000000000006 L 61.800000000000004,55.6 L 62.2,56.0 L 62.2,56.2 L 62.400000000000006,56.400000000000006 L 62.400000000000006,56.6 L 62.6,56.800000000000004 L 62.6,57.0 L 63.0,57.400000000000006 L 63.0,57.6 L 63.400000000000006,58.0 L 63.400000000000006,58.400000000000006 L 63.6,58.400000000000006 L 63.800000000000004,58.6 L 63.800000000000004,59.2 L 64.2,59.6 L 64.2,59.800000000000004 L 64.4,60.0 L 64.4,60.2 L 64.8,60.6 L 64.8,60.800000000000004 L 65.2,61.2 L 65.2,61.400000000000006 L 65.4,61.6 L 65.4,61.800000000000004 L 65.60000000000001,62.0 L 65.60000000000001,62.2 L 66.0,62.6 L 66.0,62.800000000000004 L 66.4,63.2 L 66.4,63.400000000000006 L 66.0,63.800000000000004 L 65.8,63.800000000000004 L 65.60000000000001,63.6 L 65.2,63.6 L 65.0,63.800000000000004 L 62.0,63.800000000000004 L 61.800000000000004,63.6 L 59.400000000000006,63.6 L 59.2,63.800000000000004 L 57.800000000000004,63.800000000000004 L 57.6,63.6 L 55.800000000000004,63.6 L 55.6,63.800000000000004 L 55.400000000000006,63.800000000000004 L 55.2,63.6 L 54.400000000000006,63.6 L 54.2,63.800000000000004 L 52.0,63.800000000000004 L 51.800000000000004,63.6 L 46.6,63.6 L 46.400000000000006,63.800000000000004 L 46.2,63.800000000000004 L 45.800000000000004,64.2 L 45.800000000000004,64.4 L 45.400000000000006,64.8 L 45.400000000000006,65.0 L 45.2,65.2 L 45.2,65.4 L 45.0,65.60000000000001 L 45.0,66.0 L 44.6,66.4 L 44.6,66.60000000000001 L 44.400000000000006,66.8 L 44.400000000000006,67.0 L 44.0,67.4 L 44.0,67.60000000000001 L 43.800000000000004,67.8 L 43.800000000000004,68.0 L 43.6,68.2 L 43.6,68.4 L 43.2,68.8 L 43.2,69.0 L 43.0,69.2 L 43.0,69.4 L 42.6,69.8 L 42.6,70.0 L 42.2,70.4 L 42.2,70.60000000000001 L 42.0,70.8 L 42.0,71.2 L 41.800000000000004,71.4 L 41.800000000000004,71.60000000000001 L 41.6,71.8 L 41.6,72.0 L 41.800000000000004,72.2 L 81.0,72.2 L 81.2,72.0 L 81.2,71.8 L 80.80000000000001,71.4 L 80.80000000000001,71.0 L 80.4,70.60000000000001 L 80.4,70.4 L 80.0,70.0 L 80.0,69.8 L 79.80000000000001,69.60000000000001 L 79.80000000000001,69.4 L 79.60000000000001,69.2 L 79.60000000000001,69.0 L 79.4,68.8 L 79.4,68.60000000000001 L 79.2,68.4 L 79.2,68.2 L 79.0,68.0 L 79.0,67.8 L 78.60000000000001,67.4 L 78.60000000000001,67.2 L 78.2,66.8 L 78.2,66.60000000000001 L 77.80000000000001,66.2 L 77.80000000000001,66.0 L 77.60000000000001,65.8 L 77.60000000000001,65.60000000000001 L 77.4,65.4 L 77.4,65.2 L 77.2,65.0 L 77.2,64.8 L 76.80000000000001,64.4 L 76.80000000000001,64.2 L 76.60000000000001,64.0 L 76.60000000000001,63.800000000000004 L 76.4,63.6 L 76.4,63.400000000000006 L 76.0,63.0 L 76.0,62.6 L 75.60000000000001,62.2 L 75.60000000000001,62.0 L 75.2,61.6 L 75.2,61.400000000000006 L 74.8,61.0 L 74.8,60.800000000000004 L 74.60000000000001,60.6 L 74.60000000000001,60.400000000000006 L 74.4,60.2 L 74.4,60.0 L 74.2,59.800000000000004 L 74.2,59.6 L 73.8,59.2 L 73.8,59.0 L 73.60000000000001,58.800000000000004 L 73.60000000000001,58.6 L 73.4,58.400000000000006 L 73.4,58.2 L 73.2,58.0 L 73.2,57.800000000000004 L 72.8,57.400000000000006 L 72.8,57.2 L 72.60000000000001,57.0 L 72.60000000000001,56.800000000000004 L 72.2,56.400000000000006 L 72.2,56.2 L 72.0,56.0 L 72.0,55.800000000000004 L 71.60000000000001,55.400000000000006 L 71.60000000000001,55.2 L 71.4,55.0 L 71.4,54.800000000000004 L 71.2,54.6 L 71.2,54.400000000000006 L 70.8,54.0 L 70.8,53.800000000000004 L 70.4,53.400000000000006 L 70.4,53.2 L 70.2,53.0 L 70.2,52.6 L 70.0,52.400000000000006 L 70.0,52.2 L 69.60000000000001,51.800000000000004 L 69.60000000000001,51.6 L 69.2,51.2 L 69.2,51.0 L 69.0,50.800000000000004 L 69.0,50.6 L 68.60000000000001,50.2 L 68.60000000000001,50.0 L 68.4,49.800000000000004 L 68.4,49.6 L 68.2,49.400000000000006 L 68.2,49.2 L 67.8,48.800000000000004 L 67.8,48.6 L 67.4,48.2 L 67.4,48.0 L 67.2,47.800000000000004 L 67.2,47.6 L 67.0,47.400000000000006 L 67.0,47.0 L 66.8,47.0 L 66.60000000000001,46.800000000000004 L 66.60000000000001,46.400000000000006 L 66.2,46.0 L 66.2,45.800000000000004 L 66.0,45.6 L 66.0,45.400000000000006 L 65.8,45.2 L 65.8,45.0 L 65.4,44.6 L 65.4,44.400000000000006 L 65.2,44.2 L 65.2,44.0 L 64.8,43.6 L 64.8,43.400000000000006 L 64.4,43.0 L 64.4,42.6 L 64.0,42.2 L 64.0,42.0 L 63.800000000000004,41.800000000000004 L 63.800000000000004,41.6 L 63.6,41.400000000000006 L 63.6,41.2 L 63.400000000000006,41.0 L 63.400000000000006,40.800000000000004 L 63.0,40.400000000000006 L 63.0,40.2 L 62.800000000000004,40.0 L 62.800000000000004,39.800000000000004 L 62.400000000000006,39.400000000000006 L 62.400000000000006,39.2 L 62.2,39.0 L 62.2,38.800000000000004 L 61.800000000000004,38.400000000000006 L 61.800000000000004,38.2 L 61.400000000000006,37.800000000000004 L 61.400000000000006,37.6 L 61.2,37.4 L 61.2,37.2 L 61.0,37.0 L 61.0,36.800000000000004 L 60.800000000000004,36.6 L 60.800000000000004,36.4 L 60.6,36.2 L 60.6,36.0 L 60.2,35.6 L 60.2,35.4 L 60.0,35.2 L 60.0,35.0 L 59.6,34.6 L 59.6,34.4 L 59.400000000000006,34.2 L 59.400000000000006,34.0 L 59.2,33.800000000000004 L 59.2,33.6 L 58.800000000000004,33.2 L 58.800000000000004,33.0 L 58.400000000000006,32.6 L 58.400000000000006,32.4 L 58.2,32.2 L 58.2,32.0 L 57.800000000000004,31.6 L 57.800000000000004,31.200000000000003 L 57.6,31.0 L 57.6,30.8 L 57.400000000000006,30.6 L 57.400000000000006,30.400000000000002 L 57.0,30.0 L 57.0,29.8 L 56.6,29.400000000000002 L 56.6,29.200000000000003 L 56.2,28.8 L 56.2,28.400000000000002 L 55.800000000000004,28.0 L 55.800000000000004,27.8 L 55.400000000000006,27.400000000000002 L 55.400000000000006,27.200000000000003 L 55.2,27.0 L 55.2,26.8 L 55.0,26.6 L 55.0,26.400000000000002 L 54.6,26.0 L 54.6,25.8 L 54.400000000000006,25.6 L 54.400000000000006,25.200000000000003 L 54.0,24.8 L 54.0,24.6 L 53.6,24.200000000000003 L 53.6,24.0 L 53.400000000000006,23.8 L 53.400000000000006,23.6 L 53.2,23.400000000000002 L 53.2,23.200000000000003 L 53.0,23.200000000000003 L 52.800000000000004,23.0 L 52.800000000000004,22.6 L 52.400000000000006,22.200000000000003 L 52.400000000000006,22.0 L 52.2,21.8 L 52.2,21.6 L 51.800000000000004,21.200000000000003 L 51.800000000000004,21.0 L 51.6,20.8 L 51.6,20.6 L 51.400000000000006,20.400000000000002 L 51.400000000000006,20.200000000000003 L 51.2,20.0 L 51.2,19.8 L 51.0,19.6 L 51.0,19.400000000000002 L 50.6,19.0 L 50.6,18.6 L 50.2,18.2 L 50.2,18.0 L 50.0,17.8 Z" fill="#F86C2D" />
</svg>